<svg width="24" height="24" viewBox="0 0 24 24" fill="none" xmlns="http://www.w3.org/2000/svg">
<path d="M17.2603 12.5C16.5402 11.9208 15.6247 11.6134 14.6853 11.6352H8.64691C8.37159 11.6419 8.09771 11.5952 7.84164 11.4979C7.58558 11.4007 7.3526 11.2548 7.15666 11.0691C6.96072 10.8834 6.80585 10.6617 6.70131 10.4172C6.59678 10.1727 6.54473 9.91052 6.54828 9.64629C6.54157 9.54345 6.54157 9.4403 6.54828 9.33745C6.62946 8.8653 6.88749 8.43782 7.27391 8.13529C7.66032 7.83276 8.14855 7.67599 8.64691 7.69441H14.5952C15.0804 7.694 15.55 7.85897 15.9202 8.1599C16.2904 8.46083 16.5372 8.87815 16.6166 9.33745H18.5478C18.467 8.3849 18.0155 7.49642 17.2832 6.84866C16.5508 6.2009 15.5912 5.8413 14.5952 5.84135H12.5609V3H10.9515V5.84135H8.64691C7.65087 5.8413 6.69129 6.2009 5.95894 6.84866C5.2266 7.49642 4.77512 8.3849 4.69427 9.33745C4.68785 9.44031 4.68785 9.54344 4.69427 9.64629C4.69427 10.1443 4.79651 10.6375 4.99515 11.0977C5.19379 11.5578 5.48494 11.9759 5.85197 12.3281C6.59324 13.0393 7.59861 13.4389 8.64691 13.4389H14.7497C15.0228 13.4323 15.2946 13.4782 15.5489 13.574C15.8033 13.6697 16.0351 13.8134 16.2306 13.9964C16.4262 14.1795 16.5816 14.3983 16.6877 14.6398C16.7938 14.8814 16.8484 15.141 16.8483 15.4031C16.8617 15.5428 16.8617 15.6834 16.8483 15.8231C16.7461 16.2578 16.4929 16.6462 16.1302 16.9246C15.7676 17.2029 15.3171 17.3547 14.8527 17.355H8.80141C8.33701 17.3547 7.8865 17.2029 7.52387 16.9246C7.16123 16.6462 6.90801 16.2578 6.80578 15.8231H4.86165C4.97229 16.7513 5.43497 17.608 6.16153 18.23C6.88809 18.852 7.82773 19.1957 8.80141 19.1957H10.9515V22H12.5609V19.1957H14.7497C15.7234 19.1957 16.663 18.852 17.3896 18.23C18.1161 17.608 18.5788 16.7513 18.6895 15.8231V15.4031C18.6879 14.8482 18.5591 14.3005 18.3121 13.7987C18.0651 13.297 17.706 12.8536 17.2603 12.5Z" fill="#B99692"/>
</svg>
