<svg width="258" height="96" viewBox="0 0 258 96" fill="none" xmlns="http://www.w3.org/2000/svg">
<path d="M12.0848 93.7059C9.60558 92.5649 8.33774 90.2085 7.88772 87.2424C6.24962 76.446 15.5646 56.6446 21.1895 47.7198C24.7549 42.0205 28.9225 36.2905 34.9368 33.1325C35.9416 32.5553 36.923 32.2243 37.8722 32.0803C40.423 31.6933 42.3773 32.9746 42.8183 35.8813C42.9623 36.8305 42.9464 37.9252 42.7202 39.234C41.4077 47.3831 38.2957 54.4701 33.7594 59.7706C33.5078 60.1122 33.1789 60.3441 32.8823 60.3891C32.7043 60.4161 32.5767 60.3748 32.3897 60.3425C32.0751 60.2689 31.7928 60.0083 31.7388 59.6523C31.5985 59.1274 31.8141 58.5486 32.1844 58.1889L32.454 57.966C32.5636 57.8887 32.8332 57.6657 32.8152 57.547C32.8385 57.3008 33.0991 57.0185 33.3364 56.9825L33.4551 56.9645C33.7607 56.9788 34.0339 57.1801 34.079 57.4767C37.8117 52.4802 40.3702 46.1447 41.4797 39.0581C41.6647 37.877 41.6986 36.9008 41.5726 36.0703C41.2486 33.9348 39.9505 32.9787 37.9929 33.2757C37.2217 33.3927 36.3589 33.7057 35.4637 34.2056C29.737 37.2592 25.7204 42.7843 22.1963 48.356C16.0862 58.0826 7.63937 77.2061 9.13346 87.0534C9.52948 89.6635 10.6157 91.6228 12.6436 92.5895C13.5641 93.0567 14.6679 93.132 15.795 92.961C25.9389 91.4219 44.0997 69.1253 49.3924 62.0108C49.493 61.8742 49.662 61.7879 49.84 61.7609C49.9586 61.7429 50.1456 61.7752 50.2822 61.8758C50.4188 61.9765 50.5052 62.1454 50.5232 62.2641C50.5502 62.442 50.5179 62.629 50.4172 62.7656C44.553 70.513 26.7715 92.5093 15.9157 94.1564C14.492 94.3724 13.2013 94.2648 12.0848 93.7059ZM65.267 59.6629C65.3676 59.5263 65.5366 59.44 65.6552 59.422C66.0112 59.368 66.3618 59.6789 66.4158 60.0348C66.4338 60.1534 66.3421 60.3494 66.2415 60.4861C64.403 62.7677 60.0279 65.1307 56.706 65.6347C54.6297 65.9498 52.92 65.4809 52.7597 63.624C51.6526 65.127 49.2875 68.3382 47.5672 68.5992C47.2706 68.6442 46.965 68.6299 46.6917 68.4286C46.3591 68.2363 46.1775 67.839 46.1145 67.4238C45.7635 65.1103 48.4051 60.5221 51.7271 60.0181C52.3203 59.9281 52.8722 59.9657 53.5104 60.1723C53.5607 60.104 53.611 60.0356 53.6703 60.0266C53.6613 59.9673 54.0639 59.4207 54.0639 59.4207C54.1555 59.2248 54.3245 59.1385 54.5025 59.1115C54.8584 59.0575 55.2 59.3091 55.245 59.6057C55.272 59.7836 55.2307 59.9113 55.139 60.1072C54.2873 61.693 53.9747 62.8327 54.0737 63.4853C54.2177 64.4344 55.1112 64.7236 56.2977 64.5436C59.1451 64.1116 63.7627 61.3476 65.267 59.6629ZM47.3872 67.4127C48.4677 67.7343 52.1967 62.3136 52.7826 61.3751C52.468 61.3014 52.1624 61.2871 51.8064 61.3411C48.8997 61.7821 46.686 66.7909 47.3872 67.4127ZM64.9602 70.8151C64.2484 70.9231 63.7791 70.6302 63.6335 70.4703C63.4195 70.26 63.3152 69.9724 63.2612 69.6164C62.8921 67.1843 67.504 62.7826 67.387 62.0115C67.36 61.8335 67.0094 61.5226 65.3411 60.9261C64.3199 60.5955 63.847 59.8784 63.739 59.1665C63.505 57.6242 64.8546 55.7202 66.1597 55.5222C66.8122 55.4232 67.3498 55.7664 67.4398 56.3596C67.5208 56.8935 67.2406 57.8463 65.704 59.718C67.7552 60.4384 68.5068 60.992 68.6508 61.9411C68.8938 63.5428 66.5733 65.0479 64.6272 68.6203C64.3846 69.0212 64.4296 69.3178 64.4476 69.4364L64.4656 69.5551C65.3808 70.3872 75.773 61.2853 79.2112 57.5472C79.3118 57.4106 79.4808 57.3243 79.6587 57.2973C79.8367 57.2703 79.9643 57.3116 80.11 57.4715C80.3833 57.6728 80.3869 58.0971 80.1767 58.311C77.6533 60.8786 67.7483 70.3921 64.9602 70.8151ZM82.4595 65.0043C81.2731 65.1843 80.279 65.0317 79.4681 64.4872C78.5889 63.8924 78.0117 62.8876 77.8046 61.5232C77.2826 58.0826 78.955 52.3063 82.7483 44.5091C82.84 44.3131 82.9999 44.1675 83.1779 44.1405C83.2965 44.1225 83.4242 44.1638 83.5518 44.2051C83.7478 44.2968 83.8934 44.4567 83.9294 44.694C83.9474 44.8127 83.9061 44.9403 83.8648 45.0679C79.3797 54.3053 78.7497 58.9524 79.1097 61.3252C79.3077 62.6303 79.822 63.2198 80.1636 63.4714C80.7012 63.8146 81.3807 63.8936 82.2112 63.7676C85.1179 63.3266 89.6132 60.1564 93.8565 55.3252C94.0578 55.0519 94.482 55.0482 94.7553 55.2495C94.9783 55.5191 95.0323 55.875 94.7717 56.1573C90.2768 61.3301 85.7222 64.5093 82.4595 65.0043ZM109.732 52.9164C109.833 52.7797 110.002 52.6934 110.121 52.6754C110.476 52.6214 110.827 52.9323 110.881 53.2883C110.899 53.4069 110.807 53.6029 110.707 53.7395C108.868 56.0211 104.493 58.3842 101.171 58.8882C99.095 59.2032 97.3854 58.7344 97.225 56.8774C96.1179 58.3805 93.7529 61.5916 92.0325 61.8526C91.7359 61.8976 91.4303 61.8833 91.1571 61.682C90.8244 61.4897 90.6428 61.0925 90.5798 60.6773C90.2288 58.3637 92.8704 53.7755 96.1924 53.2715C96.7856 53.1815 97.3375 53.2191 97.9757 53.4257C98.026 53.3574 98.0763 53.2891 98.1357 53.2801C98.1267 53.2208 98.5292 52.6742 98.5292 52.6742C98.6209 52.4782 98.7898 52.3919 98.9678 52.3649C99.3237 52.3109 99.6653 52.5625 99.7103 52.8591C99.7373 53.0371 99.696 53.1647 99.6044 53.3607C98.7526 54.9464 98.44 56.0862 98.539 56.7387C98.6831 57.6879 99.5765 57.9771 100.763 57.7971C103.61 57.3651 108.228 54.6011 109.732 52.9164ZM91.8525 60.6662C92.933 60.9878 96.662 55.567 97.2479 54.6285C96.9333 54.5549 96.6277 54.5406 96.2717 54.5946C93.365 55.0356 91.1513 60.0444 91.8525 60.6662ZM157.369 37.678C159.205 49.7795 136.165 71.1171 117.367 77.6106C117.284 77.8658 117.261 78.1121 117.178 78.3674C117.114 78.7413 116.844 78.9643 116.607 79.0003C116.251 79.0543 115.791 78.8207 115.787 78.3965L115.76 78.2185L115.751 78.1592C113.957 78.7348 111.807 79.3644 109.671 79.6885C106.646 80.1475 103.887 79.9593 102.682 78.0181C102.441 77.6298 102.309 77.1643 102.246 76.749C101.733 73.3677 106.982 69.9618 110.855 67.4929C112.847 66.2197 114.916 65.0562 116.994 63.952C118.123 58.1974 120.06 52.5631 122.653 47.2541C122.795 46.9898 122.955 46.8442 123.192 46.8082C123.37 46.7812 123.498 46.8225 123.634 46.9231L128.639 27.1082C126.737 28.9746 124.931 31.0693 123.498 33.2286C123.348 33.4335 123.238 33.5108 123.06 33.5378C122.704 33.5918 122.285 33.2306 122.231 32.8747C122.204 32.6967 122.236 32.5097 122.337 32.3731C124.314 29.403 126.692 26.6754 129.31 24.3361C129.991 21.6233 130.543 19.6583 130.763 18.7145C130.828 18.3406 131.089 18.0583 131.522 18.1139C131.887 18.1193 132.246 18.4895 132.182 18.8634L131.198 22.7753C133.642 20.8873 139.27 17.1811 143.478 16.1179C143.765 16.0135 144.121 15.9595 144.359 15.9235C146.969 15.5275 148.344 16.5932 148.56 18.0169C148.677 18.7881 148.498 19.6043 148.003 20.3468C146.479 22.7021 142.193 26.4475 133.454 34.4489C136.833 32.7225 140.673 31.2296 144.351 30.6716C147.851 30.1405 151.112 30.4347 153.604 32.0593C155.831 33.5419 157.027 35.4238 157.369 37.678ZM143.817 59.1539C149.475 54.0474 156.839 44.9802 155.795 38.099C155.669 37.2685 155.424 36.456 155.001 35.6705C153.197 32.1816 149.253 31.3842 144.745 32.0683C139.169 32.9143 132.84 35.9986 128.842 38.8505C128.733 38.9279 128.614 38.9459 128.495 38.9639C128.08 39.0269 127.73 38.716 127.676 38.36C127.667 38.3007 127.649 38.1821 127.699 38.1137C127.731 37.9268 127.763 37.7398 127.974 37.5258C141.123 25.3961 145.19 21.8053 146.475 20.2752C146.988 19.6513 147.244 18.9448 147.163 18.4109C147.037 17.5804 146.158 16.9856 144.388 17.3149C141.134 17.8693 135.594 20.9552 130.558 25.3605C126.414 41.6464 127.007 39.5538 121.345 61.8352C127.295 59.0512 133.563 56.7651 139.772 54.488L139.89 54.47C140.187 54.425 140.511 54.5579 140.683 54.8959C140.692 54.9552 140.761 55.0055 140.77 55.0648C140.815 55.3614 140.622 55.694 140.335 55.7984C134.414 57.9712 128.433 60.153 122.703 62.7823C122.246 62.973 121.621 63.2499 120.886 63.6042C120.025 67.1332 119 71.1728 117.785 75.9692C125.008 73.1742 134.329 67.8152 143.817 59.1539ZM122.724 50.5205C120.927 54.677 119.563 58.8892 118.633 63.1571L119.706 62.6301C120.649 58.8459 121.666 54.747 122.724 50.5205ZM119.255 64.4585C118.908 64.5718 118.63 64.7354 118.292 64.9081C117.854 67.22 117.543 69.5732 117.342 71.8491L119.255 64.4585ZM103.82 77.1172C104.364 78.3089 106.549 78.7058 109.93 78.1927C111.591 77.9407 113.581 77.4567 115.772 76.6995C115.757 72.9999 116.056 69.3739 116.661 65.7623C110.428 69.0749 102.453 74.1082 103.82 77.1172ZM195.454 40.0316C195.59 40.1323 195.608 40.2509 195.626 40.3696C195.653 40.5475 195.571 40.8028 195.47 40.9394C194.167 42.3509 191.746 43.9926 189.235 45.0412C188.381 45.4135 187.052 45.8578 185.807 46.0468C184.68 46.2178 183.644 46.1929 182.893 45.6393C182.346 45.2368 182.087 44.7299 181.988 44.0773C180.387 46.323 178.379 48.6909 177.033 49.0166L176.914 49.0346C176.499 49.0976 176.175 48.9646 175.97 48.8136C175.629 48.562 175.456 48.2241 175.384 47.7495C175.303 47.2156 175.382 46.5361 175.639 45.8296L175.58 45.8386C172.359 48.2086 167.211 51.4778 163.652 52.0178C163.355 52.0628 163.058 52.1078 162.753 52.0935C161.726 52.1279 160.892 51.8296 160.31 51.1898C159.727 50.5499 159.441 49.8651 159.324 49.0939C159.117 47.7295 159.512 46.3345 160.08 45.2773C161.184 43.35 162.737 42.3861 163.982 42.1971C164.872 42.0621 165.528 42.3873 165.805 43.0129C165.883 43.1225 165.91 43.3005 165.928 43.4191C166 43.8937 165.885 44.3359 165.514 44.6955C165.043 45.1918 164.249 45.5551 163.359 45.6901C162.707 45.7891 162.036 45.7695 161.407 45.6222C161.297 45.6995 161.256 45.8272 161.206 45.8955C160.738 46.816 160.367 47.9648 160.52 48.9732C160.601 49.5071 160.791 49.9637 161.151 50.3339C161.51 50.7042 162.08 50.8604 162.742 50.8208C162.988 50.8441 163.225 50.8081 163.522 50.7631C167.971 50.088 175.898 44.3339 177.233 42.7355C178.266 41.547 179.523 40.6281 180.887 40.4211C181.54 40.3221 182.16 40.4101 182.798 40.6167C182.99 40.2841 183.132 40.0198 183.283 39.8148C183.476 39.4822 183.891 39.4192 184.155 39.5612C184.488 39.7534 184.542 40.1094 184.409 40.433C183.557 42.0187 183.135 43.2358 183.243 43.9477C183.288 44.2443 183.442 44.4635 183.647 44.6145C184.057 44.9164 184.728 44.9361 185.677 44.7921C186.567 44.657 187.617 44.3764 188.758 43.8998C191.15 42.8692 193.412 41.3731 194.546 40.048C194.646 39.9113 194.824 39.8843 194.943 39.8663C195.121 39.8393 195.308 39.8717 195.454 40.0316ZM164.112 43.4518C163.637 43.5239 162.962 43.8691 162.322 44.4517C162.627 44.466 162.933 44.4804 163.229 44.4354C163.823 44.3453 164.33 44.0864 164.59 43.8041C164.75 43.6584 164.732 43.5398 164.664 43.4895C164.664 43.4895 164.468 43.3978 164.112 43.4518ZM180.108 44.484C180.762 43.5958 181.457 42.58 182.052 41.7008C181.738 41.6272 181.432 41.6129 181.135 41.6579C180.246 41.7929 179.291 42.3018 178.376 43.4723L178.326 43.5406C178.267 43.5496 178.276 43.6089 178.276 43.6089C178.065 43.8229 177.864 44.0962 177.722 44.3605C176.533 46.1188 176.452 47.5875 176.666 47.7978C176.725 47.7888 177.583 47.8408 180.108 44.484ZM210.22 37.7305C210.297 37.8401 210.375 37.9497 210.393 38.0684C210.42 38.2464 210.387 38.4333 210.227 38.579C205.377 43.8058 200.914 46.789 197.71 47.275C195.337 47.6351 193.716 46.546 193.32 43.9359C192.978 41.6817 193.491 38.266 195.266 33.5666C194.367 33.6422 193.478 33.7773 192.647 33.9033C191.283 34.1103 190.105 34.3496 189.329 34.8315C189.27 34.8405 189.219 34.9089 189.101 34.9269C188.863 34.9629 188.599 34.8209 188.444 34.6016L188.417 34.4237C188.381 34.1864 188.455 33.8718 188.683 33.7764C189.688 33.1992 191.153 32.8555 192.695 32.6215C193.763 32.4595 194.84 32.3568 195.798 32.2721C196.513 30.5858 197.406 28.8724 198.204 26.9308C198.337 26.6072 198.684 26.4938 199.008 26.6268C199.331 26.7598 199.454 27.166 199.321 27.4896C198.614 29.2353 197.804 30.6934 197.222 32.0561C198.892 31.8634 200.475 31.5018 201.745 31.0665L201.863 31.0485C202.16 31.0035 202.433 31.2048 202.588 31.424L202.606 31.5427C202.651 31.8393 202.458 32.1719 202.23 32.2672C200.623 32.8752 198.666 33.1722 196.699 33.4099C194.548 38.8339 194.236 41.9762 194.506 43.7559C194.713 45.1203 195.287 45.7008 195.619 45.8931C196.157 46.2363 196.896 46.3063 197.726 46.1803C200.633 45.7392 205.069 42.578 209.312 37.7468C209.422 37.6695 209.591 37.5832 209.71 37.5652C209.887 37.5382 210.074 37.5705 210.22 37.7305ZM208.925 48.9719C208.213 49.0799 207.744 48.787 207.598 48.6271C207.384 48.4168 207.28 48.1292 207.226 47.7732C206.857 45.3411 211.469 40.9394 211.352 40.1683C211.325 39.9903 210.974 39.6794 209.306 39.0829C208.285 38.7523 207.812 38.0352 207.704 37.3233C207.47 35.781 208.819 33.877 210.125 33.679C210.777 33.58 211.315 33.9232 211.405 34.5164C211.486 35.0503 211.205 36.0031 209.669 37.8748C211.72 38.5952 212.472 39.1488 212.616 40.0979C212.859 41.6996 210.538 43.2047 208.592 46.7771C208.349 47.178 208.394 47.4746 208.412 47.5932L208.43 47.7119C209.346 48.544 219.738 39.4421 223.176 35.704C223.277 35.5674 223.446 35.4811 223.624 35.4541C223.802 35.4271 223.929 35.4684 224.075 35.6283C224.348 35.8296 224.352 36.2539 224.141 36.4678C221.618 39.0354 211.713 48.5489 208.925 48.9719ZM224.393 32.9706C223.977 33.0336 223.627 32.7227 223.573 32.3667C223.51 31.9515 223.761 31.6099 224.177 31.5469C224.533 31.4929 224.934 31.7355 224.997 32.1507C225.051 32.5067 224.749 32.9166 224.393 32.9706ZM224.991 41.3152C223.745 41.5042 222.76 41.411 222.009 40.8574C221.531 40.5052 221.29 40.1169 221.2 39.5237C221.056 38.5746 221.451 37.1795 222.116 35.5615C222.207 35.3655 222.376 35.2792 222.554 35.2522C222.673 35.2342 222.8 35.2755 222.928 35.3168C223.133 35.4678 223.279 35.6278 223.306 35.8057C223.324 35.9244 223.282 36.052 223.241 36.1797C222.573 37.3734 222.26 38.5132 222.368 39.2251C222.404 39.4624 222.499 39.6906 222.704 39.8416C223.183 40.1939 223.921 40.2638 224.811 40.1288C228.37 39.5888 234.455 35.692 235.864 33.779C236.065 33.5057 236.489 33.502 236.763 33.7033C237.036 33.9046 237.04 34.3288 236.838 34.6021C235.53 36.3785 229.262 40.6672 224.991 41.3152ZM253.81 31.1168C253.887 31.2264 253.965 31.336 253.983 31.4547C254.019 31.692 253.927 31.8879 253.767 32.0336C252.149 33.3714 249 34.2133 244.548 36.4667C245.543 42.6271 238.267 57.871 232.157 58.7981C229.785 59.1581 228.45 57.9647 228.144 55.9478C227.415 51.1428 232.339 41.5962 243.108 35.7749C242.631 34.6335 241.687 34.4126 240.56 34.5836C240.026 34.6646 239.392 34.8822 238.816 35.0909C238.707 35.1682 238.656 35.2365 238.597 35.2455L238.36 35.2815C238.063 35.3265 237.799 35.1846 237.635 34.906C237.549 34.737 237.581 34.55 237.682 34.4134C237.723 34.2858 237.833 34.2084 237.943 34.1311C240.894 31.9841 242.143 30.2167 242.017 29.3862C241.981 29.1489 241.895 28.98 241.648 28.9567C241.461 28.9243 241.334 28.883 241.156 28.91C239.376 29.18 237.59 32.6068 235.615 34.7877C235.514 34.9244 235.395 34.9424 235.277 34.9604C235.099 34.9874 234.912 34.9551 234.707 34.8041C234.57 34.7035 234.493 34.5938 234.475 34.4752C234.448 34.2972 234.54 34.1013 234.64 33.9646C236.301 31.71 238.484 28.1016 240.916 27.7326C242.162 27.5436 243.11 28.1888 243.281 29.3159C243.434 30.3243 242.92 31.7374 241.27 33.2622C242.552 33.3104 243.6 33.8189 244.172 35.1887C248.354 33.1582 251.691 32.3486 252.911 31.1924C253.012 31.0558 253.121 30.9785 253.24 30.9605C253.477 30.9245 253.673 31.0161 253.81 31.1168ZM231.959 57.493C237.12 56.7099 243.882 42.8791 243.365 37.071C233.4 42.5883 228.701 51.6153 229.295 55.5305C229.511 56.9542 230.417 57.727 231.959 57.493Z" fill="#888888"/>
</svg>
