<svg width="166" height="164" viewBox="0 0 166 164" fill="none" xmlns="http://www.w3.org/2000/svg">
<path d="M9.86529 155.53C7.8646 155.53 6.14472 155.073 4.68808 154.143C3.24899 153.213 2.14335 151.949 1.3536 150.335C0.563859 148.72 0.195312 146.86 0.195312 144.754C0.195312 143.192 0.458565 141.735 0.96751 140.419C1.47646 139.103 2.17845 137.962 3.09104 136.979C3.98608 135.997 5.03908 135.242 6.23247 134.698C7.42586 134.154 8.68944 133.891 10.0408 133.891C11.2342 133.891 12.2345 134.031 13.0067 134.294C13.7789 134.558 14.3581 134.786 14.7617 134.979C15.0249 135.102 15.2531 135.207 15.4637 135.295C15.6743 135.382 15.8322 135.417 15.9024 135.417C16.113 135.417 16.2885 135.33 16.4289 135.172C16.5693 135.014 16.6571 134.715 16.6922 134.294H17.4293L17.3766 137.734L17.4293 141.174H16.6922C16.3938 139.138 15.6918 137.559 14.5686 136.435C13.4455 135.312 11.9713 134.751 10.1285 134.751C8.82984 134.751 7.74176 135.014 6.86426 135.523C5.98677 136.049 5.26722 136.769 4.74073 137.681C4.21423 138.594 3.82813 139.647 3.58243 140.858C3.33674 142.069 3.21389 143.35 3.21389 144.736C3.21389 146.807 3.44204 148.562 3.88079 150.036C4.31953 151.511 5.05662 152.651 6.05696 153.441C7.07486 154.231 8.4262 154.635 10.1461 154.635C11.4272 154.635 12.5329 154.336 13.4806 153.757C14.4282 153.16 15.1829 152.388 15.762 151.405C16.3412 150.423 16.6922 149.334 16.815 148.159H17.517L17.4644 151.756L17.5521 155.196H16.8501L16.7624 154.88C16.6746 154.617 16.5869 154.389 16.4816 154.161C16.3763 153.933 16.1832 153.827 15.9375 153.827C15.7971 153.827 15.6392 153.862 15.4461 153.95C15.2531 154.038 15.0425 154.126 14.8143 154.248C14.3054 154.512 13.6385 154.775 12.8137 155.091C11.9888 155.389 11.0236 155.547 9.90039 155.547L9.86529 155.53Z" fill="black"/>
<path d="M24.3257 155.529C23.378 155.529 22.6058 155.284 21.9916 154.81C21.3774 154.336 21.0615 153.652 21.0615 152.792C21.0615 151.932 21.4476 151.16 22.2022 150.475C22.9744 149.791 23.8694 149.176 24.8873 148.632C25.6595 148.194 26.4142 147.825 27.1864 147.509C27.9586 147.193 28.6079 146.93 29.1519 146.719V145.772C29.1519 144.701 28.9589 143.894 28.5552 143.35C28.1516 142.823 27.397 142.56 26.2738 142.56C25.7473 142.56 25.2208 142.63 24.7118 142.771C24.2029 142.911 23.9396 143.157 23.9396 143.543C23.9396 143.613 23.9396 143.701 23.9923 143.806C24.0274 143.911 24.0449 143.999 24.0625 144.105C24.1678 144.368 24.2029 144.631 24.2029 144.894C24.2029 145.263 24.0625 145.561 23.7992 145.772C23.536 145.982 23.2201 146.088 22.834 146.088C22.483 146.088 22.1847 145.965 21.9565 145.684C21.7284 145.421 21.6055 145.105 21.6055 144.719C21.6055 144.017 21.8687 143.455 22.4128 143.034C22.9568 142.613 23.6237 142.314 24.3959 142.121C25.1857 141.928 25.9403 141.841 26.6599 141.841C28.2394 141.841 29.3801 142.209 30.0996 142.929C30.8192 143.648 31.1877 144.842 31.1877 146.491V151.791C31.1877 152.651 31.2579 153.318 31.3808 153.792C31.5036 154.266 31.802 154.494 32.2407 154.494C32.5391 154.494 32.7848 154.389 33.0129 154.178C33.2235 153.968 33.3815 153.722 33.4517 153.476L33.9781 153.687C33.8202 154.248 33.5394 154.705 33.1358 155.038C32.7321 155.372 32.1705 155.547 31.4685 155.547C30.6086 155.547 30.0119 155.301 29.6784 154.792C29.3625 154.283 29.1695 153.634 29.1344 152.809C28.5903 153.687 27.8884 154.371 27.046 154.845C26.2036 155.319 25.2734 155.547 24.2731 155.547L24.3257 155.529ZM23.3605 152.651C23.3605 153.195 23.5184 153.634 23.8519 153.968C24.1678 154.283 24.6592 154.459 25.2734 154.459C25.835 154.459 26.3966 154.319 26.9056 154.055C27.4321 153.774 27.8884 153.423 28.2744 153.002C28.6605 152.581 28.9589 152.125 29.1519 151.633V147.334C28.5026 147.614 27.8357 147.93 27.1688 148.299C26.4844 148.667 25.8701 149.071 25.291 149.527C24.7118 149.984 24.238 150.458 23.887 150.984C23.536 151.511 23.3605 152.072 23.3605 152.686V152.651Z" fill="black"/>
<path d="M34.8391 155.301V154.617L35.313 154.564C35.8921 154.494 36.3133 154.389 36.6292 154.283C36.9275 154.178 37.1381 153.932 37.261 153.546C37.3838 153.16 37.4365 152.528 37.4365 151.651V145.526C37.4365 144.754 37.3312 144.192 37.1206 143.841C36.91 143.49 36.6116 143.262 36.2256 143.174C35.8395 143.087 35.3656 143.034 34.8391 143.034V142.349C35.6464 142.349 36.4186 142.314 37.1732 142.262C37.9103 142.209 38.7001 142.121 39.5074 141.998L39.1915 145.386H39.3143C39.7531 144.069 40.2796 143.139 40.9114 142.613C41.5432 142.086 42.21 141.823 42.9471 141.823C43.772 141.823 44.316 142.016 44.5968 142.42C44.8776 142.823 45.018 143.209 45.018 143.578C45.018 144.017 44.8952 144.368 44.6319 144.631C44.3687 144.912 44.0352 145.052 43.5965 145.052C43.1577 145.052 42.8769 144.947 42.6488 144.754C42.4382 144.561 42.3329 144.333 42.3329 144.069C42.3329 143.876 42.3505 143.683 42.4031 143.508C42.4558 143.332 42.4733 143.192 42.4733 143.087C42.4733 142.894 42.3329 142.788 42.0521 142.788C41.7713 142.788 41.4905 142.911 41.1746 143.174C40.8763 143.438 40.613 143.789 40.4024 144.227C40.2269 144.596 40.0514 145.017 39.8935 145.456C39.7355 145.912 39.6127 146.404 39.5074 146.93V151.581C39.5074 152.458 39.56 153.09 39.6829 153.476C39.8057 153.862 40.0163 154.108 40.3147 154.213C40.613 154.318 41.0518 154.406 41.6309 154.494L42.1048 154.547V155.231L38.4895 155.143L34.8742 155.231L34.8391 155.301Z" fill="black"/>
<path d="M45.9998 155.301V154.617L46.4736 154.564C47.0352 154.494 47.4739 154.389 47.7898 154.283C48.0882 154.178 48.2988 153.933 48.4216 153.546C48.5445 153.16 48.5971 152.529 48.5971 151.651V137.278C48.5971 136.26 48.3865 135.61 47.9653 135.312C47.5441 135.031 46.965 134.891 46.2104 134.891H45.9998V134.206C46.807 134.206 47.5792 134.189 48.3339 134.136C49.0885 134.084 49.8607 133.996 50.668 133.855V151.651C50.668 152.529 50.7207 153.16 50.8435 153.546C50.9664 153.933 51.177 154.178 51.4753 154.283C51.7737 154.389 52.2124 154.477 52.7915 154.564L53.2654 154.617V155.301L49.6501 155.214L46.0349 155.301H45.9998Z" fill="black"/>
<path d="M58.4435 155.529C57.4958 155.529 56.7236 155.284 56.1093 154.81C55.4951 154.336 55.1792 153.652 55.1792 152.792C55.1792 151.932 55.5653 151.16 56.3199 150.475C57.0921 149.791 57.9872 149.176 59.0051 148.632C59.7773 148.194 60.5319 147.825 61.3041 147.509C62.0763 147.193 62.7256 146.93 63.2697 146.719V145.772C63.2697 144.701 63.0766 143.894 62.673 143.35C62.2693 142.823 61.5147 142.56 60.3915 142.56C59.865 142.56 59.3385 142.63 58.8296 142.771C58.3206 142.911 58.0574 143.157 58.0574 143.543C58.0574 143.613 58.0574 143.701 58.11 143.806C58.1451 143.911 58.1627 143.999 58.1802 144.105C58.2855 144.368 58.3206 144.631 58.3206 144.894C58.3206 145.263 58.1802 145.561 57.917 145.772C57.6537 145.982 57.3378 146.088 56.9517 146.088C56.6007 146.088 56.3024 145.965 56.0742 145.684C55.8461 145.421 55.7232 145.105 55.7232 144.719C55.7232 144.017 55.9865 143.455 56.5305 143.034C57.0746 142.613 57.7415 142.314 58.5137 142.121C59.3034 141.928 60.0581 141.841 60.7776 141.841C62.3571 141.841 63.4978 142.209 64.2174 142.929C64.9369 143.648 65.3055 144.842 65.3055 146.491V151.791C65.3055 152.651 65.3757 153.318 65.4985 153.792C65.6214 154.266 65.9197 154.494 66.3585 154.494C66.6568 154.494 66.9025 154.389 67.1306 154.178C67.3412 153.968 67.4992 153.722 67.5694 153.476L68.0959 153.687C67.9379 154.248 67.6571 154.705 67.2535 155.038C66.8498 155.372 66.2883 155.547 65.5863 155.547C64.7263 155.547 64.1296 155.301 63.7962 154.792C63.4803 154.283 63.2872 153.634 63.2521 152.809C62.7081 153.687 62.0061 154.371 61.1637 154.845C60.3213 155.319 59.3912 155.547 58.3908 155.547L58.4435 155.529ZM57.4782 152.651C57.4782 153.195 57.6362 153.634 57.9696 153.968C58.2855 154.283 58.7769 154.459 59.3912 154.459C59.9528 154.459 60.5144 154.319 61.0233 154.055C61.5498 153.774 62.0061 153.423 62.3922 153.002C62.7783 152.581 63.0766 152.125 63.2697 151.633V147.334C62.6203 147.614 61.9534 147.93 61.2866 148.299C60.6021 148.667 59.9879 149.071 59.4087 149.527C58.8296 149.984 58.3557 150.458 58.0047 150.984C57.6537 151.511 57.4782 152.072 57.4782 152.686V152.651Z" fill="black"/>
<path d="M77.0804 155.302V154.564L77.6771 154.512C78.3616 154.442 78.8881 154.336 79.2566 154.196C79.6252 154.073 79.8709 153.792 80.0113 153.371C80.1517 152.95 80.2219 152.248 80.2219 151.3V138.225C80.2219 137.243 80.1517 136.541 80.0113 136.137C79.8709 135.716 79.6252 135.453 79.2566 135.33C78.8881 135.207 78.3616 135.102 77.6771 135.014L77.0804 134.961V134.224L81.4328 134.312H85.0305C85.557 134.312 86.1713 134.329 86.8908 134.365C87.5928 134.4 88.3123 134.505 89.0319 134.645C89.7514 134.786 90.4183 135.031 91.0326 135.382C91.6468 135.733 92.1558 136.19 92.5419 136.804C92.928 137.401 93.121 138.173 93.121 139.121C93.121 140.068 92.9104 140.805 92.4892 141.455C92.068 142.104 91.5415 142.63 90.8922 143.052C90.2604 143.473 89.5935 143.806 88.909 144.034C89.8567 144.122 90.7342 144.333 91.5591 144.684C92.3839 145.035 93.0508 145.579 93.5773 146.316C94.1038 147.053 94.3495 148.036 94.3495 149.282C94.3495 150.423 94.1214 151.37 93.6826 152.16C93.2439 152.932 92.6472 153.547 91.8925 153.985C91.1379 154.424 90.313 154.74 89.418 154.951C88.5229 155.161 87.5928 155.249 86.6802 155.249H81.4328L77.0804 155.337V155.302ZM85.9256 135.119H82.5911V143.806H86.5047C87.7156 143.806 88.6633 143.42 89.3478 142.631C90.0322 141.841 90.3657 140.665 90.3657 139.103C90.3657 137.98 90.1902 137.137 89.8392 136.576C89.4882 136.014 88.9792 135.628 88.3299 135.435C87.663 135.242 86.8733 135.137 85.9256 135.137V135.119ZM85.0481 154.389H86.6978C87.6805 154.389 88.5405 154.249 89.2776 153.985C90.0147 153.704 90.5763 153.196 90.9799 152.476C91.3836 151.739 91.5766 150.686 91.5766 149.317C91.5766 147.948 91.3485 146.983 90.8922 146.316C90.4359 145.649 89.7514 145.21 88.8388 144.982C87.9262 144.754 86.7504 144.666 85.3289 144.666H82.5911V151.441C82.5911 152.616 82.7841 153.406 83.1878 153.81C83.5914 154.213 84.2057 154.406 85.0305 154.406L85.0481 154.389Z" fill="black"/>
<path d="M103.897 155.529C102.599 155.529 101.475 155.249 100.51 154.687C99.5449 154.125 98.7902 153.353 98.2637 152.353C97.7197 151.353 97.4564 150.229 97.4564 148.948C97.4564 147.579 97.7548 146.351 98.3339 145.28C98.9306 144.21 99.7204 143.367 100.703 142.753C101.686 142.139 102.792 141.823 103.985 141.823C105.494 141.823 106.688 142.314 107.53 143.262C108.39 144.227 108.811 145.491 108.811 147.07C108.811 147.299 108.811 147.509 108.776 147.667C108.759 147.825 108.741 147.93 108.723 147.983H99.8257C99.8081 148.264 99.7906 148.527 99.7906 148.808C99.7906 149.843 99.9485 150.809 100.3 151.704C100.633 152.599 101.142 153.301 101.809 153.845C102.493 154.371 103.318 154.634 104.301 154.634C105.231 154.634 106.038 154.371 106.758 153.845C107.477 153.318 108.021 152.546 108.425 151.528L109.127 151.791C108.302 154.266 106.547 155.494 103.88 155.494L103.897 155.529ZM103.985 142.56C102.774 142.56 101.826 142.999 101.142 143.859C100.457 144.719 100.054 145.877 99.8959 147.299H103.634C104.511 147.299 105.196 147.193 105.652 146.983C106.109 146.772 106.424 146.526 106.6 146.21C106.775 145.895 106.846 145.614 106.846 145.315C106.846 144.455 106.547 143.771 105.968 143.28C105.371 142.788 104.722 142.543 104.003 142.543L103.985 142.56Z" fill="black"/>
<path d="M114.901 155.529C113.953 155.529 113.181 155.284 112.567 154.81C111.953 154.336 111.637 153.652 111.637 152.792C111.637 151.932 112.023 151.16 112.778 150.475C113.55 149.791 114.445 149.176 115.463 148.632C116.235 148.194 116.99 147.825 117.762 147.509C118.534 147.193 119.183 146.93 119.727 146.719V145.772C119.727 144.701 119.534 143.894 119.131 143.35C118.727 142.823 117.972 142.56 116.849 142.56C116.323 142.56 115.796 142.63 115.287 142.771C114.778 142.911 114.515 143.157 114.515 143.543C114.515 143.613 114.515 143.701 114.55 143.806C114.585 143.911 114.603 143.999 114.62 144.105C114.726 144.368 114.761 144.631 114.761 144.894C114.761 145.263 114.638 145.561 114.357 145.772C114.094 145.982 113.778 146.088 113.392 146.088C113.041 146.088 112.742 145.965 112.514 145.684C112.286 145.421 112.163 145.105 112.163 144.719C112.163 144.017 112.427 143.455 112.971 143.034C113.515 142.613 114.182 142.314 114.954 142.121C115.744 141.928 116.498 141.841 117.218 141.841C118.797 141.841 119.938 142.209 120.657 142.929C121.377 143.648 121.746 144.842 121.746 146.491V151.791C121.746 152.651 121.816 153.318 121.939 153.792C122.061 154.266 122.36 154.494 122.799 154.494C123.097 154.494 123.343 154.389 123.571 154.178C123.781 153.968 123.939 153.722 124.009 153.476L124.536 153.687C124.378 154.248 124.097 154.705 123.694 155.038C123.29 155.372 122.728 155.547 122.026 155.547C121.166 155.547 120.57 155.301 120.236 154.792C119.92 154.283 119.727 153.634 119.692 152.809C119.148 153.687 118.446 154.371 117.604 154.845C116.761 155.319 115.831 155.547 114.831 155.547L114.901 155.529ZM113.936 152.651C113.936 153.195 114.094 153.634 114.427 153.968C114.743 154.283 115.235 154.459 115.849 154.459C116.41 154.459 116.972 154.319 117.481 154.055C118.007 153.774 118.464 153.423 118.85 153.002C119.236 152.581 119.534 152.125 119.727 151.633V147.334C119.078 147.614 118.411 147.93 117.744 148.299C117.06 148.667 116.446 149.071 115.866 149.527C115.287 149.984 114.813 150.458 114.462 150.984C114.111 151.511 113.936 152.072 113.936 152.686V152.651Z" fill="black"/>
<path d="M131.029 155.53C129.748 155.53 128.747 155.214 128.01 154.564C127.273 153.915 126.905 152.985 126.905 151.721V146C126.905 145.122 126.852 144.491 126.729 144.105C126.606 143.718 126.396 143.473 126.097 143.35C125.799 143.227 125.36 143.139 124.781 143.087L124.307 143.034V142.35L127.923 142.437L128.958 142.402V151.598C128.958 152.564 129.204 153.301 129.695 153.81C130.187 154.319 130.853 154.582 131.696 154.582C132.415 154.582 133.065 154.424 133.626 154.09C134.188 153.775 134.662 153.353 135.065 152.844C135.469 152.335 135.785 151.809 136.031 151.282V146.018C136.031 145.14 135.978 144.508 135.855 144.122C135.732 143.736 135.522 143.49 135.223 143.367C134.925 143.245 134.486 143.157 133.907 143.104L133.433 143.052V142.367L137.049 142.455L138.084 142.42V151.932C138.084 152.686 138.172 153.231 138.365 153.599C138.558 153.968 138.821 154.196 139.19 154.319C139.558 154.441 139.997 154.494 140.523 154.494V155.179C139.716 155.179 138.979 155.179 138.312 155.214C137.645 155.249 136.873 155.319 136.013 155.477V152.774C135.82 153.09 135.609 153.371 135.399 153.599C134.89 154.161 134.276 154.635 133.539 155.003C132.802 155.372 131.959 155.547 131.011 155.547L131.029 155.53Z" fill="black"/>
<path d="M146.843 155.529C145.877 155.529 145.105 155.249 144.509 154.67C143.912 154.09 143.614 153.143 143.614 151.826V143.104H141.437V142.367L142.227 142.314C143.034 142.262 143.649 141.928 144.07 141.332C144.491 140.735 144.772 139.893 144.912 138.804H145.684V142.367H149.458V143.104H145.684V151.949C145.684 153.687 146.299 154.547 147.51 154.547C148.019 154.547 148.44 154.371 148.738 154.038C149.036 153.704 149.335 153.266 149.598 152.757L150.247 153.09C150.125 153.388 149.984 153.652 149.826 153.897C149.651 154.143 149.493 154.354 149.335 154.529C149.001 154.898 148.615 155.161 148.194 155.319C147.773 155.477 147.317 155.547 146.86 155.547L146.843 155.529Z" fill="black"/>
<path d="M151.651 163.866C150.984 163.866 150.475 163.708 150.142 163.374C149.809 163.058 149.633 162.69 149.633 162.304C149.633 161.918 149.773 161.584 150.054 161.321C150.335 161.058 150.704 160.917 151.125 160.917C151.406 160.917 151.616 160.97 151.774 161.058C151.932 161.146 152.072 161.233 152.213 161.339C152.353 161.444 152.511 161.532 152.687 161.654C152.862 161.76 153.073 161.812 153.301 161.812C153.652 161.812 154.021 161.672 154.407 161.391C154.793 161.11 155.179 160.549 155.6 159.689L157.548 155.512L152.652 144.789C152.459 144.333 152.248 143.964 152.002 143.666C151.774 143.368 151.406 143.192 150.914 143.139L150.23 143.052V142.367L153.301 142.455L156.284 142.367V143.052L155.863 143.104C155.038 143.227 154.635 143.525 154.635 144.017C154.635 144.245 154.74 144.614 154.951 145.07L158.636 153.143L162.322 145.21C162.532 144.719 162.638 144.333 162.638 144.07C162.638 143.543 162.164 143.21 161.198 143.104L160.725 143.052V142.367L163.55 142.455L165.902 142.367V143.052L165.463 143.104C164.743 143.21 164.217 143.473 163.884 143.894C163.568 144.333 163.252 144.859 162.988 145.491L156.337 160.022C156.021 160.689 155.653 161.321 155.231 161.9C154.81 162.497 154.301 162.971 153.722 163.322C153.143 163.69 152.441 163.866 151.616 163.866H151.651Z" fill="black"/>
<path d="M73.9222 60.0759C73.9924 59.9179 70.0788 59.76 70.0437 59.76C64.4629 59.76 58.3029 60.5497 52.88 58.9703C43.1398 56.0921 36.0496 47.4751 33.8208 37.7349C31.592 27.9597 34.1367 17.2367 40.9987 9.83066C47.3518 2.96867 54.8631 1.54713 63.6907 1.54713C64.2523 1.54713 67.2884 1.79283 67.5692 1.19613C67.6394 1.03818 63.7258 0.845134 63.6907 0.845134C55.1263 0.845134 46.4567 0.353742 38.8927 5.1273C28.0996 11.9366 23.2734 25.4851 26.0813 37.7349C28.6787 49.1072 37.6993 58.2507 49.3524 60.0057C56.0916 61.0236 63.2519 60.462 70.0437 60.462C70.6053 60.462 73.6414 60.6901 73.9222 60.0934V60.0759Z" fill="black"/>
<path d="M124.01 63.147C116.042 58.7771 106.53 59.7599 97.7553 59.7599C97.1937 59.7599 94.1575 59.5142 93.8767 60.1109C93.8065 60.2689 97.7202 60.4619 97.7553 60.4619C101.107 60.4619 104.652 60.1109 107.987 60.4619C114.621 61.1639 120.816 65.3408 124.87 70.4829C133.469 81.4164 133.627 97.7554 125.309 108.882C121.29 114.252 114.937 118.763 108.075 119.465C105.354 119.745 102.441 119.465 99.7033 119.465H88.1555V1.12586C87.9098 0.616914 80.6792 0.599365 79.2402 0.599365C78.3276 0.599365 75.3616 0.757318 75.3616 1.09077C75.3616 1.31891 79.0998 1.30136 80.1528 1.30136V119.482H77.5729C77.0113 119.482 73.9752 119.236 73.6944 119.833C73.6242 119.991 77.5378 120.184 77.5729 120.184H97.6851C104.161 120.184 111.163 120.781 117.534 119.289C143.174 113.234 146.439 75.4319 124.027 63.1646H124.01V63.147Z" fill="black"/>
</svg>
