<svg width="106" height="103" viewBox="0 0 106 103" fill="none" xmlns="http://www.w3.org/2000/svg">
<path d="M25.4026 81.0105C24.6456 81.0105 23.9998 80.834 23.4546 80.481C22.9094 80.128 22.4912 79.6466 22.2001 79.0261C21.909 78.4056 21.7607 77.6995 21.7607 76.8972C21.7607 76.2981 21.856 75.7471 22.0519 75.2497C22.2424 74.7469 22.5124 74.3136 22.8512 73.9338C23.19 73.5594 23.587 73.2706 24.0316 73.062C24.4815 72.8587 24.9579 72.7517 25.4714 72.7517C25.9213 72.7517 26.2972 72.7998 26.5883 72.9015C26.8794 73.0031 27.1018 73.0887 27.25 73.1636C27.3453 73.2064 27.4352 73.2492 27.5146 73.2813C27.594 73.3134 27.6523 73.3294 27.6787 73.3294C27.7581 73.3294 27.827 73.2973 27.8799 73.2331C27.9328 73.1689 27.9646 73.0566 27.9805 72.9015H28.2557L28.2345 74.2173L28.2557 75.5332H27.9805C27.8693 74.7522 27.6046 74.1531 27.1812 73.7252C26.7577 73.2973 26.2019 73.0834 25.5032 73.0834C25.0162 73.0834 24.6033 73.185 24.2698 73.3829C23.9363 73.5808 23.6717 73.8536 23.4705 74.2013C23.2694 74.549 23.1264 74.9555 23.0312 75.4155C22.9359 75.8755 22.8935 76.3676 22.8935 76.8918C22.8935 77.6781 22.9782 78.3521 23.1423 78.9137C23.3064 79.4754 23.5817 79.9086 23.9628 80.2082C24.3439 80.5131 24.8574 80.6629 25.5032 80.6629C25.9849 80.6629 26.403 80.5505 26.7577 80.3259C27.1124 80.1012 27.3982 79.8017 27.6205 79.4272C27.8375 79.0528 27.9699 78.6409 28.0175 78.1916H28.2822L28.261 79.561L28.2928 80.8768H28.0281L27.9963 80.7538C27.9646 80.6575 27.9328 80.5666 27.8905 80.481C27.8481 80.3954 27.7793 80.3526 27.684 80.3526C27.6311 80.3526 27.5729 80.3687 27.4988 80.3954C27.43 80.4275 27.3506 80.4649 27.2606 80.5077C27.07 80.604 26.8159 80.711 26.5036 80.8287C26.1913 80.9464 25.8261 81.0052 25.4026 81.0052V81.0105Z" fill="white" fill-opacity="0.4"/>
<path d="M30.8535 81.0104C30.4988 81.0104 30.2024 80.9195 29.9695 80.7376C29.7366 80.5558 29.6201 80.299 29.6201 79.9674C29.6201 79.6357 29.763 79.3469 30.0542 79.0848C30.3453 78.828 30.6788 78.5927 31.0652 78.3841C31.3563 78.2183 31.6422 78.0792 31.9333 77.9562C32.2245 77.8385 32.468 77.7368 32.6797 77.6513V77.2929C32.6797 76.881 32.6056 76.5761 32.4521 76.3729C32.2986 76.1696 32.0127 76.068 31.5893 76.068C31.3881 76.068 31.1923 76.0947 31.0017 76.1482C30.8111 76.2017 30.7106 76.298 30.7106 76.4424C30.7106 76.4745 30.7158 76.5066 30.7264 76.544C30.737 76.5815 30.7476 76.6189 30.7529 76.6564C30.79 76.7526 30.8058 76.8543 30.8058 76.9612C30.8058 77.1057 30.7582 77.2126 30.6576 77.2929C30.557 77.3731 30.4353 77.4106 30.2977 77.4106C30.1653 77.4106 30.0542 77.3624 29.9642 77.2608C29.8742 77.1592 29.8319 77.0361 29.8319 76.8971C29.8319 76.6296 29.9324 76.4103 30.1389 76.2498C30.3453 76.0894 30.5941 75.9717 30.8905 75.9021C31.187 75.8326 31.4728 75.7952 31.7481 75.7952C32.3409 75.7952 32.775 75.9342 33.0502 76.2124C33.3255 76.4905 33.4631 76.9399 33.4631 77.571V79.5929C33.4631 79.9246 33.4843 80.176 33.5372 80.3578C33.5849 80.5344 33.696 80.6253 33.8654 80.6253C33.9766 80.6253 34.0719 80.5825 34.1565 80.5023C34.2359 80.422 34.2942 80.3311 34.3206 80.2348L34.5218 80.3151C34.4636 80.5344 34.3577 80.7055 34.2042 80.8286C34.0507 80.9569 33.8442 81.0211 33.5743 81.0211C33.2461 81.0211 33.0238 80.9248 32.902 80.7323C32.7803 80.5397 32.7115 80.2883 32.6956 79.9727C32.4891 80.3097 32.2245 80.5665 31.9069 80.7483C31.5893 80.9248 31.2399 81.0158 30.8641 81.0158L30.8535 81.0104ZM30.4882 79.9085C30.4882 80.1171 30.5518 80.283 30.6735 80.406C30.7952 80.529 30.9752 80.5932 31.2134 80.5932C31.4305 80.5932 31.6316 80.5397 31.8275 80.4381C32.0233 80.3311 32.198 80.2027 32.3462 80.0369C32.4944 79.8764 32.6056 79.6999 32.6797 79.5127V77.8759C32.4362 77.9829 32.1874 78.1006 31.928 78.2397C31.674 78.3787 31.4357 78.5338 31.2187 78.705C31.0017 78.8762 30.8217 79.0634 30.6894 79.2613C30.557 79.4592 30.4882 79.6732 30.4882 79.9085Z" fill="white" fill-opacity="0.4"/>
<path d="M34.8207 80.9251V80.6684L34.9954 80.647C35.2124 80.6149 35.3765 80.5828 35.4877 80.54C35.6041 80.4972 35.6835 80.4063 35.7259 80.2619C35.7682 80.1174 35.7947 79.8767 35.7947 79.5397V77.2076C35.7947 76.9134 35.7577 76.7048 35.6783 76.5657C35.5989 76.432 35.4877 76.3464 35.3395 76.3143C35.1913 76.2822 35.0166 76.2662 34.8154 76.2662V76.0094C35.1172 76.0094 35.4083 75.9987 35.6941 75.9773C35.9747 75.9559 36.2658 75.9185 36.5728 75.8757L36.4511 77.1648H36.4934C36.6575 76.662 36.8587 76.3143 37.0916 76.111C37.3298 75.9078 37.5839 75.8062 37.8591 75.8062C38.1714 75.8062 38.3779 75.881 38.4785 76.0362C38.5843 76.1913 38.632 76.3357 38.632 76.4801C38.632 76.6459 38.5843 76.7797 38.489 76.8813C38.3938 76.9883 38.2614 77.0364 38.1026 77.0364C37.9438 77.0364 37.8274 76.999 37.748 76.9241C37.6686 76.8492 37.6262 76.7636 37.6262 76.6673C37.6262 76.5925 37.6368 76.5229 37.6527 76.4534C37.6739 76.3838 37.6792 76.3357 37.6792 76.2983C37.6792 76.2234 37.6262 76.1859 37.5256 76.1859C37.4251 76.1859 37.3139 76.2341 37.1975 76.3304C37.081 76.4266 36.9857 76.5604 36.901 76.7369C36.8322 76.8813 36.7687 77.0364 36.7105 77.2076C36.6522 77.3788 36.6046 77.566 36.5675 77.7692V79.5451C36.5675 79.8821 36.5887 80.1228 36.6364 80.2672C36.684 80.4116 36.7581 80.5079 36.8746 80.5454C36.991 80.5881 37.1551 80.6202 37.3668 80.6523L37.5468 80.6737V80.9305L36.1811 80.8984L34.8154 80.9305L34.8207 80.9251Z" fill="white" fill-opacity="0.4"/>
<path d="M39.0283 80.925V80.6682L39.2083 80.6469C39.4253 80.6148 39.5894 80.5827 39.7006 80.5399C39.817 80.4971 39.8964 80.4061 39.9388 80.2617C39.9811 80.1173 40.0076 79.8766 40.0076 79.5396V74.0623C40.0076 73.6718 39.9282 73.4257 39.7694 73.3134C39.6106 73.2064 39.3883 73.1529 39.1077 73.1529H39.0283V72.8962C39.33 72.8962 39.6265 72.8855 39.907 72.8694C40.1876 72.848 40.4787 72.8159 40.7857 72.7625V79.5396C40.7857 79.8766 40.8069 80.1173 40.8545 80.2617C40.9022 80.4061 40.9763 80.5024 41.0927 80.5399C41.2092 80.5827 41.3733 80.6148 41.585 80.6469L41.765 80.6682V80.925L40.3993 80.8929L39.0336 80.925H39.0283Z" fill="white" fill-opacity="0.4"/>
<path d="M43.7119 81.0104C43.3572 81.0104 43.0608 80.9195 42.8279 80.7376C42.595 80.5558 42.4785 80.299 42.4785 79.9674C42.4785 79.6357 42.6214 79.3469 42.9126 79.0848C43.2037 78.828 43.5372 78.5927 43.9236 78.3841C44.2147 78.2183 44.5006 78.0792 44.7917 77.9562C45.0829 77.8385 45.3264 77.7368 45.5381 77.6513V77.2929C45.5381 76.881 45.464 76.5761 45.3105 76.3729C45.157 76.1696 44.8711 76.068 44.4477 76.068C44.2465 76.068 44.0507 76.0947 43.8601 76.1482C43.6695 76.2017 43.569 76.298 43.569 76.4424C43.569 76.4745 43.5742 76.5066 43.5848 76.544C43.5954 76.5815 43.606 76.6189 43.6113 76.6564C43.6484 76.7526 43.6642 76.8543 43.6642 76.9612C43.6642 77.1057 43.6166 77.2126 43.516 77.2929C43.4154 77.3731 43.2937 77.4106 43.1561 77.4106C43.0237 77.4106 42.9126 77.3624 42.8226 77.2608C42.7326 77.1592 42.6903 77.0361 42.6903 76.8971C42.6903 76.6296 42.7908 76.4103 42.9973 76.2498C43.2037 76.0894 43.4525 75.9717 43.7489 75.9021C44.0454 75.8326 44.3312 75.7952 44.6065 75.7952C45.1993 75.7952 45.6334 75.9342 45.9086 76.2124C46.1839 76.4905 46.3215 76.9399 46.3215 77.571V79.5929C46.3215 79.9246 46.3427 80.176 46.3956 80.3578C46.4433 80.5344 46.5544 80.6253 46.7238 80.6253C46.835 80.6253 46.9303 80.5825 47.0149 80.5023C47.0943 80.422 47.1526 80.3311 47.179 80.2348L47.3802 80.3151C47.322 80.5344 47.2161 80.7055 47.0626 80.8286C46.9091 80.9569 46.7026 81.0211 46.4327 81.0211C46.1045 81.0211 45.8822 80.9248 45.7604 80.7323C45.6387 80.5397 45.5698 80.2883 45.554 79.9727C45.3475 80.3097 45.0829 80.5665 44.7653 80.7483C44.4477 80.9248 44.0983 81.0158 43.7225 81.0158L43.7119 81.0104ZM43.3466 79.9085C43.3466 80.1171 43.4101 80.283 43.5319 80.406C43.6536 80.529 43.8336 80.5932 44.0718 80.5932C44.2889 80.5932 44.49 80.5397 44.6859 80.4381C44.8817 80.3311 45.0564 80.2027 45.2046 80.0369C45.3528 79.8764 45.464 79.6999 45.5381 79.5127V77.8759C45.2946 77.9829 45.0458 78.1006 44.7864 78.2397C44.5323 78.3787 44.2941 78.5338 44.0771 78.705C43.8601 78.8762 43.6801 79.0634 43.5478 79.2613C43.4154 79.4592 43.3466 79.6732 43.3466 79.9085Z" fill="white" fill-opacity="0.4"/>
<path d="M50.7471 80.925V80.6469L50.9694 80.6255C51.2288 80.5934 51.4246 80.556 51.5623 80.5078C51.6999 80.4597 51.7952 80.3527 51.8481 80.1922C51.901 80.0318 51.9275 79.7697 51.9275 79.4006V74.4153C51.9275 74.0409 51.901 73.7735 51.8481 73.6183C51.7952 73.4632 51.6999 73.3562 51.5623 73.3081C51.4246 73.2599 51.2288 73.2225 50.9694 73.1904L50.7471 73.169V72.8909L52.3933 72.923H53.7484C53.9496 72.923 54.1825 72.9283 54.4471 72.9444C54.7118 72.9604 54.9818 72.9925 55.2517 73.0513C55.5217 73.1102 55.7758 73.2011 56.0087 73.3295C56.2416 73.4632 56.4322 73.6397 56.5751 73.8697C56.718 74.0997 56.7921 74.3939 56.7921 74.7523C56.7921 75.1107 56.7127 75.3942 56.5539 75.6402C56.3951 75.8863 56.194 76.0896 55.9558 76.25C55.7123 76.4105 55.4635 76.5335 55.2041 76.6245C55.5588 76.6566 55.8922 76.7368 56.2045 76.8705C56.5169 77.0042 56.7709 77.2128 56.9668 77.4963C57.1627 77.7745 57.2632 78.1543 57.2632 78.625C57.2632 79.0582 57.1785 79.422 57.0144 79.7215C56.845 80.0157 56.6227 80.2511 56.3422 80.4169C56.0616 80.5827 55.7493 80.7057 55.4105 80.7806C55.0718 80.8555 54.7277 80.8929 54.3783 80.8929H52.3986L50.7524 80.925H50.7471ZM54.0766 73.2385H52.8221V76.5496H54.2989C54.7595 76.5496 55.1141 76.3998 55.3682 76.1003C55.6223 75.8007 55.7493 75.3514 55.7493 74.7523C55.7493 74.3244 55.6805 74.0035 55.5482 73.7895C55.4158 73.5702 55.2253 73.4258 54.9765 73.3509C54.7277 73.276 54.426 73.2385 54.0713 73.2385H54.0766ZM53.7431 80.5774H54.3624C54.733 80.5774 55.0559 80.5239 55.3364 80.4222C55.6117 80.3153 55.8287 80.1227 55.9822 79.8445C56.1357 79.5664 56.2098 79.1599 56.2098 78.6357C56.2098 78.1115 56.1251 77.7477 55.9558 77.491C55.7864 77.2342 55.527 77.0684 55.1776 76.9882C54.8283 76.9079 54.3889 76.8652 53.8543 76.8652H52.8221V79.4487C52.8221 79.898 52.8962 80.1976 53.0497 80.3527C53.2032 80.5078 53.4308 80.5827 53.7431 80.5827V80.5774Z" fill="white" fill-opacity="0.4"/>
<path d="M60.8515 81.0104C60.3645 81.0104 59.9358 80.9034 59.5758 80.6895C59.2159 80.4755 58.93 80.1813 58.7289 79.8016C58.5277 79.4218 58.4219 78.9939 58.4219 78.5071C58.4219 77.9829 58.533 77.5175 58.7554 77.111C58.9777 76.7045 59.2741 76.3836 59.6499 76.1482C60.0258 75.9128 60.4387 75.7952 60.8886 75.7952C61.4603 75.7952 61.9049 75.977 62.2278 76.3461C62.5507 76.7152 62.7095 77.1966 62.7095 77.7957C62.7095 77.8866 62.7095 77.9615 62.6989 78.0203C62.6936 78.0792 62.683 78.122 62.6778 78.1434H59.3217C59.3165 78.2503 59.3112 78.352 59.3112 78.459C59.3112 78.8548 59.3747 79.2239 59.5017 79.5662C59.6288 79.9085 59.8193 80.176 60.0734 80.3792C60.3275 80.5825 60.6398 80.6841 61.0103 80.6841C61.3597 80.6841 61.6667 80.5825 61.9367 80.3846C62.2066 80.1867 62.4184 79.8925 62.5666 79.502L62.8313 79.6036C62.519 80.5451 61.8626 81.0158 60.8515 81.0158V81.0104ZM60.8833 76.0733C60.4228 76.0733 60.0681 76.2391 59.8087 76.5654C59.5547 76.8971 59.3959 77.3303 59.3376 77.8813H60.751C61.0844 77.8813 61.3385 77.8438 61.5132 77.7636C61.6879 77.6834 61.8043 77.5871 61.8679 77.4747C61.9314 77.3624 61.9631 77.2447 61.9631 77.1324C61.9631 76.8008 61.852 76.544 61.6297 76.3568C61.4073 76.1696 61.1586 76.0787 60.8833 76.0787V76.0733Z" fill="white" fill-opacity="0.4"/>
<path d="M65.0087 81.0104C64.6541 81.0104 64.3577 80.9195 64.1248 80.7376C63.8918 80.5558 63.7754 80.299 63.7754 79.9674C63.7754 79.6357 63.9183 79.3469 64.2094 79.0848C64.5006 78.828 64.8341 78.5927 65.2205 78.3841C65.5116 78.2183 65.7975 78.0792 66.0886 77.9562C66.3797 77.8385 66.6232 77.7368 66.835 77.6513V77.2929C66.835 76.881 66.7609 76.5761 66.6073 76.3729C66.4538 76.1696 66.168 76.068 65.7445 76.068C65.5434 76.068 65.3475 76.0947 65.157 76.1482C64.9664 76.2017 64.8658 76.298 64.8658 76.4424C64.8658 76.4745 64.8711 76.5066 64.8817 76.544C64.8923 76.5815 64.9029 76.6189 64.9082 76.6564C64.9452 76.7526 64.9611 76.8543 64.9611 76.9612C64.9611 77.1057 64.9135 77.2126 64.8129 77.2929C64.7123 77.3731 64.5906 77.4106 64.4529 77.4106C64.3206 77.4106 64.2094 77.3624 64.1195 77.2608C64.0295 77.1592 63.9871 77.0361 63.9871 76.8971C63.9871 76.6296 64.0877 76.4103 64.2941 76.2498C64.5006 76.0894 64.7494 75.9717 65.0458 75.9021C65.3422 75.8326 65.6281 75.7952 65.9033 75.7952C66.4962 75.7952 66.9302 75.9342 67.2055 76.2124C67.4808 76.4905 67.6184 76.9399 67.6184 77.571V79.5929C67.6184 79.9246 67.6396 80.176 67.6925 80.3578C67.7401 80.5344 67.8513 80.6253 68.0207 80.6253C68.1318 80.6253 68.2271 80.5825 68.3118 80.5023C68.3912 80.422 68.4494 80.3311 68.4759 80.2348L68.6771 80.3151C68.6188 80.5344 68.513 80.7055 68.3595 80.8286C68.206 80.9569 67.9995 81.0211 67.7295 81.0211C67.4014 81.0211 67.179 80.9248 67.0573 80.7323C66.9355 80.5397 66.8667 80.2883 66.8508 79.9727C66.6444 80.3097 66.3797 80.5665 66.0621 80.7483C65.7445 80.9248 65.3952 81.0158 65.0193 81.0158L65.0087 81.0104ZM64.6435 79.9085C64.6435 80.1171 64.707 80.283 64.8288 80.406C64.9505 80.529 65.1305 80.5932 65.3687 80.5932C65.5857 80.5932 65.7869 80.5397 65.9827 80.4381C66.1786 80.3311 66.3533 80.2027 66.5015 80.0369C66.6497 79.8764 66.7609 79.6999 66.835 79.5127V77.8759C66.5915 77.9829 66.3427 78.1006 66.0833 78.2397C65.8292 78.3787 65.591 78.5338 65.374 78.705C65.157 78.8762 64.977 79.0634 64.8447 79.2613C64.7123 79.4592 64.6435 79.6732 64.6435 79.9085Z" fill="white" fill-opacity="0.4"/>
<path d="M71.0785 81.0105C70.5968 81.0105 70.2157 80.8875 69.9404 80.6468C69.6652 80.4061 69.5222 80.0424 69.5222 79.5663V77.3893C69.5222 77.0523 69.5011 76.8116 69.4534 76.6672C69.4111 76.5227 69.3317 76.4264 69.2152 76.3783C69.0988 76.3302 68.9347 76.2981 68.7229 76.2767L68.543 76.2553V75.9985L69.9087 76.0306L70.2951 76.0199V79.5235C70.2951 79.8926 70.3851 80.1707 70.5703 80.3633C70.7556 80.5559 71.0097 80.6575 71.3273 80.6575C71.6025 80.6575 71.846 80.5933 72.0525 80.4703C72.2642 80.3473 72.4442 80.1868 72.5977 79.9942C72.7512 79.8017 72.8677 79.6037 72.9576 79.4005V77.3893C72.9576 77.0523 72.9365 76.8116 72.8888 76.6672C72.8465 76.5227 72.7671 76.4264 72.6506 76.3783C72.5342 76.3302 72.3701 76.2981 72.1584 76.2767L71.9837 76.2553V75.9985L73.3494 76.0306L73.7358 76.0199V79.6465C73.7358 79.93 73.7728 80.144 73.8416 80.2831C73.9105 80.4221 74.0163 80.5131 74.1539 80.5559C74.2916 80.5987 74.461 80.6254 74.6621 80.6254V80.8822C74.3604 80.8822 74.0798 80.8822 73.8311 80.8928C73.5823 80.9035 73.2911 80.9356 72.9629 80.9945V79.9621C72.8888 80.0798 72.8094 80.1868 72.73 80.2777C72.5395 80.497 72.3066 80.6735 72.0313 80.8126C71.7561 80.9517 71.4384 81.0212 71.0785 81.0212V81.0105Z" fill="white" fill-opacity="0.4"/>
<path d="M77.0452 81.0103C76.68 81.0103 76.3888 80.898 76.1612 80.6787C75.9336 80.4593 75.8224 80.0956 75.8224 79.5928V76.2711H75.002V75.9929L75.3037 75.9715C75.6054 75.9502 75.8383 75.8218 75.9971 75.5971C76.1559 75.3671 76.2618 75.0515 76.3147 74.6396H76.6058V75.9983H78.0298V76.2764H76.6058V79.641C76.6058 80.2989 76.8335 80.6305 77.294 80.6305C77.4846 80.6305 77.6433 80.5663 77.7598 80.4326C77.8763 80.2989 77.9874 80.1384 78.0827 79.9458L78.3262 80.0689C78.2839 80.1812 78.2256 80.2828 78.1674 80.3791C78.1039 80.4754 78.0457 80.5556 77.9821 80.6198C77.8551 80.7642 77.7122 80.8659 77.5534 80.9247C77.3946 80.9835 77.2252 81.0156 77.0452 81.0156V81.0103Z" fill="white" fill-opacity="0.4"/>
<path d="M78.8566 84.1878C78.6025 84.1878 78.4172 84.1236 78.2902 84.0006C78.1631 83.8776 78.0996 83.7385 78.0996 83.5887C78.0996 83.4389 78.1525 83.3159 78.2584 83.2143C78.3643 83.1127 78.5019 83.0645 78.666 83.0645C78.7719 83.0645 78.8513 83.0806 78.9095 83.1127C78.9677 83.1448 79.026 83.1822 79.0736 83.2196C79.1212 83.2571 79.1848 83.2945 79.2536 83.3373C79.3224 83.3801 79.3965 83.4015 79.4865 83.4015C79.6188 83.4015 79.7564 83.348 79.9047 83.2464C80.0476 83.1394 80.2011 82.9254 80.3546 82.5938L81.0851 80.9998L79.243 76.9132C79.1689 76.742 79.0895 76.5976 78.9995 76.4853C78.9095 76.3729 78.7719 76.3034 78.5866 76.282L78.3325 76.2499V75.9932L79.4865 76.0253L80.6087 75.9932V76.2499L80.4552 76.2713C80.1429 76.3141 79.9894 76.4318 79.9894 76.619C79.9894 76.7099 80.0317 76.8436 80.1111 77.0255L81.498 80.1012L82.8848 77.0844C82.9642 76.8971 83.0066 76.7527 83.0066 76.6457C83.0066 76.4425 82.8266 76.3195 82.4614 76.2767L82.2867 76.2553V75.9985L83.3507 76.0306L84.2399 75.9985V76.2553L84.0758 76.2767C83.8006 76.3141 83.6047 76.4157 83.483 76.5815C83.3612 76.7474 83.2501 76.9506 83.1442 77.186L80.6351 82.7168C80.5187 82.9736 80.3758 83.2089 80.217 83.4336C80.0582 83.6582 79.8676 83.8401 79.6506 83.9792C79.4335 84.1183 79.1689 84.1878 78.8566 84.1878Z" fill="white" fill-opacity="0.4"/>
<path d="M49.5571 44.6425C49.5888 44.5783 48.1067 44.5248 48.0961 44.5248C45.9893 44.5248 43.6708 44.8297 41.6276 44.2199C37.954 43.1234 35.2808 39.8391 34.4445 36.1269C33.6028 32.3987 34.5662 28.3174 37.1494 25.4932C39.542 22.8829 42.3792 22.3426 45.7035 22.3426C45.9152 22.3426 47.0586 22.4335 47.1645 22.2089C47.1962 22.1447 45.7141 22.0752 45.7035 22.0752C42.4745 22.0752 39.2085 21.8879 36.3554 23.7066C32.2848 26.2955 30.4638 31.4626 31.5225 36.1269C32.5018 40.4596 35.9001 43.9418 40.2937 44.6158C42.8398 45.0062 45.5288 44.7869 48.0961 44.7869C48.3078 44.7869 49.4512 44.8725 49.5571 44.6425Z" fill="white" fill-opacity="0.4"/>
<path d="M68.4389 45.814C65.4323 44.1504 61.8487 44.5249 58.5403 44.5249C58.3286 44.5249 57.1852 44.4339 57.0793 44.6586C57.0476 44.7228 58.5297 44.7923 58.5403 44.7923C59.8054 44.7923 61.1394 44.6586 62.3992 44.7923C64.903 45.0651 67.2373 46.6484 68.7671 48.6061C72.012 52.773 72.0702 58.9939 68.9312 63.2356C67.4173 65.2843 65.0194 67.0013 62.4362 67.2687C61.4093 67.3757 60.3136 67.2687 59.2814 67.2687H54.9302V22.1875C54.8349 21.995 52.1089 21.9843 51.5636 21.9843C51.2196 21.9843 50.1027 22.0484 50.1027 22.1715C50.1027 22.2624 51.516 22.2517 51.913 22.2517V67.2741H50.939C50.7273 67.2741 49.5839 67.1832 49.478 67.4078C49.4463 67.472 50.9284 67.5415 50.939 67.5415H58.5191C60.9647 67.5415 63.6008 67.7715 65.9987 67.1992C75.6697 64.8884 76.8978 50.489 68.4442 45.8193H68.4336L68.4389 45.814Z" fill="white" fill-opacity="0.4"/>
</svg>
