<svg width="25" height="24" viewBox="0 0 25 24" fill="none" xmlns="http://www.w3.org/2000/svg">
<path d="M12.093 16C13.1539 16 14.1713 15.5786 14.9214 14.8284C15.6716 14.0783 16.093 13.0609 16.093 12C16.093 10.9391 15.6716 9.92172 14.9214 9.17157C14.1713 8.42143 13.1539 8 12.093 8C11.0322 8 10.0147 8.42143 9.26459 9.17157C8.51444 9.92172 8.09302 10.9391 8.09302 12C8.09302 13.0609 8.51444 14.0783 9.26459 14.8284C10.0147 15.5786 11.0322 16 12.093 16Z" stroke="#725A58" stroke-width="1.5" stroke-linecap="round" stroke-linejoin="round"/>
<path d="M3.09302 16V8C3.09302 6.67392 3.6198 5.40215 4.55748 4.46447C5.49517 3.52678 6.76694 3 8.09302 3H16.093C17.4191 3 18.6909 3.52678 19.6286 4.46447C20.5662 5.40215 21.093 6.67392 21.093 8V16C21.093 17.3261 20.5662 18.5979 19.6286 19.5355C18.6909 20.4732 17.4191 21 16.093 21H8.09302C6.76694 21 5.49517 20.4732 4.55748 19.5355C3.6198 18.5979 3.09302 17.3261 3.09302 16Z" stroke="#725A58" stroke-width="1.5"/>
<path d="M17.593 6.50905L17.603 6.49805" stroke="#725A58" stroke-width="1.5" stroke-linecap="round" stroke-linejoin="round"/>
</svg>
