<svg width="60" height="60" viewBox="0 0 60 60" fill="none" xmlns="http://www.w3.org/2000/svg">
<g opacity="0.8">
<rect width="60" height="60" fill="#25D366"/>
<path d="M29.5 45.75C38.4746 45.75 45.75 38.4746 45.75 29.5C45.75 20.5254 38.4746 13.25 29.5 13.25C20.5254 13.25 13.25 20.5254 13.25 29.5C13.25 31.7407 13.7035 33.8754 14.5237 35.8174C14.977 36.8907 15.2037 37.4274 15.2317 37.833C15.2598 38.2385 15.1404 38.6847 14.9017 39.577L13.25 45.75L19.423 44.0983C20.3153 43.8596 20.7615 43.7402 21.167 43.7683C21.5726 43.7963 22.1093 44.023 23.1826 44.4763C25.1246 45.2965 27.2593 45.75 29.5 45.75Z" stroke="#FBFAFA" stroke-width="1.5" stroke-linejoin="round"/>
<path d="M23.9558 30.1132L25.371 28.3554C25.9675 27.6146 26.7049 26.9248 26.7626 25.9384C26.7772 25.6893 26.6019 24.5707 26.2513 22.3335C26.1135 21.4543 25.2927 21.375 24.5817 21.375C23.6551 21.375 23.1918 21.375 22.7318 21.5851C22.1504 21.8507 21.5534 22.5975 21.4224 23.2232C21.3188 23.7182 21.3958 24.0593 21.5498 24.7415C22.2041 27.6391 23.7391 30.5008 26.1192 32.8808C28.4992 35.2609 31.3609 36.7959 34.2585 37.4502C34.9407 37.6042 35.2818 37.6812 35.7768 37.5776C36.4025 37.4466 37.1493 36.8496 37.4149 36.2682C37.625 35.8082 37.625 35.3449 37.625 34.4183C37.625 33.7073 37.5457 32.8865 36.6665 32.7487C34.4293 32.3981 33.3107 32.2228 33.0616 32.2374C32.0752 32.2951 31.3854 33.0325 30.6446 33.629L28.8868 35.0442" stroke="#FBFAFA" stroke-width="1.5"/>
</g>
</svg>
