<svg width="35" height="34" viewBox="0 0 35 34" fill="none" xmlns="http://www.w3.org/2000/svg">
<path d="M17.25 32.5C26.2246 32.5 33.5 25.2246 33.5 16.25C33.5 7.27537 26.2246 0 17.25 0C8.27537 0 1 7.27537 1 16.25C1 18.4907 1.4535 20.6254 2.27371 22.5674C2.72702 23.6407 2.95367 24.1774 2.98173 24.583C3.0098 24.9885 2.89043 25.4347 2.65168 26.327L1 32.5L7.173 30.8483C8.06531 30.6096 8.51146 30.4902 8.91704 30.5183C9.32261 30.5463 9.85926 30.773 10.9326 31.2263C12.8746 32.0465 15.0093 32.5 17.25 32.5Z" stroke="#FBFAFA" stroke-width="1.5" stroke-linejoin="round"/>
<path d="M11.7058 16.8632L13.121 15.1054C13.7175 14.3646 14.4549 13.6748 14.5126 12.6884C14.5272 12.4393 14.3519 11.3207 14.0013 9.08353C13.8635 8.20432 13.0427 8.125 12.3317 8.125C11.4051 8.125 10.9418 8.125 10.4818 8.33514C9.90035 8.60073 9.3034 9.3475 9.1724 9.97316C9.06876 10.4682 9.14578 10.8093 9.29983 11.4915C9.95412 14.3891 11.4891 17.2508 13.8692 19.6308C16.2492 22.0109 19.1109 23.5459 22.0085 24.2002C22.6907 24.3542 23.0318 24.4312 23.5268 24.3276C24.1525 24.1966 24.8993 23.5996 25.1649 23.0182C25.375 22.5582 25.375 22.0949 25.375 21.1683C25.375 20.4573 25.2957 19.6365 24.4165 19.4987C22.1793 19.1481 21.0607 18.9728 20.8116 18.9874C19.8252 19.0451 19.1354 19.7825 18.3946 20.379L16.6368 21.7942" stroke="#FBFAFA" stroke-width="1.5"/>
</svg>
