<svg width="31" height="31" viewBox="0 0 31 31" fill="none" xmlns="http://www.w3.org/2000/svg">
<path d="M4.87947 15.4257C3.65494 13.2905 3.06368 11.547 2.70716 9.77965C2.17989 7.16578 3.38655 4.61245 5.38549 2.98323C6.23033 2.29466 7.1988 2.52992 7.69838 3.42618L8.82624 5.44959C9.72021 7.05339 10.1672 7.8553 10.0785 8.70547C9.98987 9.55564 9.38706 10.2481 8.18142 11.6329L4.87947 15.4257ZM4.87947 15.4257C7.35803 19.7475 11.2477 23.6393 15.5745 26.1207M15.5745 26.1207C17.7097 27.3453 19.4532 27.9365 21.2206 28.293C23.8344 28.8203 26.3877 27.6137 28.017 25.6147C28.7055 24.7699 28.4703 23.8014 27.574 23.3018L25.5506 22.174C23.9468 21.28 23.1449 20.833 22.2947 20.9217C21.4446 21.0103 20.7521 21.6131 19.3673 22.8188L15.5745 26.1207Z" stroke="#F8F6F4" stroke-width="1.5" stroke-linejoin="round"/>
</svg>
