<svg width="60" height="60" viewBox="0 0 60 60" fill="none" xmlns="http://www.w3.org/2000/svg">
<g opacity="0.8">
<rect width="60" height="60" fill="#B99692"/>
<path d="M24.5215 44.1665C26.3159 45.6522 28.4754 46.5988 30.9508 46.7612C32.9012 46.8891 34.9374 46.8889 36.8838 46.7612C37.5541 46.7172 38.2846 46.5594 38.9138 46.3036C39.6138 46.0192 39.964 45.8768 40.1419 45.8984C40.3198 45.92 40.5779 46.1078 41.0941 46.4835C42.0043 47.1459 43.151 47.6216 44.8514 47.5807C45.7113 47.5601 46.1412 47.5497 46.3337 47.2259C46.5262 46.9021 46.2865 46.4538 45.807 45.5572C45.1421 44.3137 44.7208 42.8902 45.3592 41.7496C46.4586 40.1204 47.3925 38.1909 47.529 36.1071C47.6023 34.9874 47.6023 33.8278 47.529 32.7082C47.4381 31.3197 47.101 29.9997 46.561 28.7915" stroke="#FBFAFA" stroke-width="1.5" stroke-linecap="round" stroke-linejoin="round"/>
<path d="M31.0897 39.8731C37.1638 39.473 42.0021 34.6117 42.4002 28.5086C42.4781 27.3143 42.4781 26.0775 42.4002 24.8832C42.0021 18.7801 37.1638 13.9188 31.0897 13.5188C29.0175 13.3823 26.8539 13.3826 24.7859 13.5188C18.7118 13.9188 13.8735 18.7801 13.4754 24.8832C13.3975 26.0775 13.3975 27.3143 13.4754 28.5086C13.6204 30.7314 14.6127 32.7895 15.7808 34.5273C16.4591 35.744 16.0115 37.2625 15.305 38.5888C14.7956 39.5451 14.5409 40.0233 14.7454 40.3688C14.9499 40.7142 15.4067 40.7252 16.3203 40.7472C18.1271 40.7908 19.3454 40.2834 20.3125 39.5769C20.861 39.1761 21.1352 38.9758 21.3242 38.9528C21.5132 38.9297 21.8852 39.0815 22.629 39.385C23.2976 39.6578 24.0738 39.8262 24.7859 39.8731C26.8539 40.0092 29.0175 40.0095 31.0897 39.8731Z" stroke="#FBFAFA" stroke-width="1.5" stroke-linejoin="round"/>
<path d="M28.3623 26.5498H28.3774M35.0742 26.5498H35.0893M21.6504 26.5498H21.6655" stroke="#FBFAFA" stroke-width="2" stroke-linecap="round" stroke-linejoin="round"/>
</g>
</svg>
