<svg width="41" height="41" viewBox="0 0 41 41" fill="none" xmlns="http://www.w3.org/2000/svg">
<path d="M4.27148 20.4997C4.27148 12.8492 4.27148 9.02392 6.64819 6.64721C9.0249 4.27051 12.8501 4.27051 20.5007 4.27051C28.1512 4.27051 31.9764 4.27051 34.3531 6.64721C36.7298 9.02392 36.7298 12.8492 36.7298 20.4997C36.7298 28.1502 36.7298 31.9754 34.3531 34.3521C31.9764 36.7288 28.1512 36.7288 20.5007 36.7288C12.8501 36.7288 9.0249 36.7288 6.64819 34.3521C4.27148 31.9754 4.27148 28.1502 4.27148 20.4997Z" stroke="#FBFAFA" stroke-width="1.5" stroke-linejoin="round"/>
<path d="M28.1875 20.5C28.1875 24.7457 24.7457 28.1875 20.5 28.1875C16.2543 28.1875 12.8125 24.7457 12.8125 20.5C12.8125 16.2543 16.2543 12.8125 20.5 12.8125C24.7457 12.8125 28.1875 16.2543 28.1875 20.5Z" stroke="#FBFAFA" stroke-width="1.5"/>
<path d="M29.9102 11.104L29.8944 11.104" stroke="#FBFAFA" stroke-width="2" stroke-linecap="round" stroke-linejoin="round"/>
</svg>
