<svg width="60" height="60" viewBox="0 0 60 60" fill="none" xmlns="http://www.w3.org/2000/svg">
<g opacity="0.8">
<rect width="60" height="60" fill="#C13ED4"/>
<path d="M13.2715 30.4997C13.2715 22.8492 13.2715 19.0239 15.6482 16.6472C18.0249 14.2705 21.8501 14.2705 29.5007 14.2705C37.1512 14.2705 40.9764 14.2705 43.3531 16.6472C45.7298 19.0239 45.7298 22.8492 45.7298 30.4997C45.7298 38.1502 45.7298 41.9754 43.3531 44.3521C40.9764 46.7288 37.1512 46.7288 29.5007 46.7288C21.8501 46.7288 18.0249 46.7288 15.6482 44.3521C13.2715 41.9754 13.2715 38.1502 13.2715 30.4997Z" stroke="#FBFAFA" stroke-width="1.5" stroke-linejoin="round"/>
<path d="M37.1875 30.5C37.1875 34.7457 33.7457 38.1875 29.5 38.1875C25.2543 38.1875 21.8125 34.7457 21.8125 30.5C21.8125 26.2543 25.2543 22.8125 29.5 22.8125C33.7457 22.8125 37.1875 26.2543 37.1875 30.5Z" stroke="#FBFAFA" stroke-width="1.5"/>
<path d="M38.9102 21.104L38.8944 21.104" stroke="#FBFAFA" stroke-width="2" stroke-linecap="round" stroke-linejoin="round"/>
</g>
</svg>
