<svg width="60" height="60" viewBox="0 0 60 60" fill="none" xmlns="http://www.w3.org/2000/svg">
<g opacity="0.8">
<rect width="60" height="60" fill="#6AA2BA"/>
<path d="M18.8795 30.4257C17.6549 28.2905 17.0637 26.547 16.7072 24.7796C16.1799 22.1658 17.3865 19.6125 19.3855 17.9832C20.2303 17.2947 21.1988 17.5299 21.6984 18.4262L22.8262 20.4496C23.7202 22.0534 24.1672 22.8553 24.0785 23.7055C23.9899 24.5556 23.3871 25.2481 22.1814 26.6329L18.8795 30.4257ZM18.8795 30.4257C21.358 34.7475 25.2477 38.6393 29.5745 41.1207M29.5745 41.1207C31.7097 42.3453 33.4532 42.9365 35.2206 43.293C37.8344 43.8203 40.3877 42.6137 42.017 40.6147C42.7055 39.7699 42.4703 38.8014 41.574 38.3018L39.5506 37.174C37.9468 36.28 37.1449 35.833 36.2947 35.9217C35.4446 36.0103 34.7521 36.6131 33.3673 37.8188L29.5745 41.1207Z" stroke="#F8F6F4" stroke-width="1.5" stroke-linejoin="round"/>
</g>
</svg>
